<svg id="LEFT_FOOT" data-name="LEFT FOOT" xmlns="http://www.w3.org/2000/svg" viewBox="0 0 500 500"><defs><style>.cls-1{fill:#f68d88;}.cls-2{fill:#ecbdbb;}.cls-3{fill:#404b7c;}.cls-4{fill:#6b81be;}.cls-5{fill:#9ab3da;}.cls-6{fill:#fff;}</style></defs><title>Succes</title><path class="cls-1" d="M252.05,381.84l15.64-5.48c-2.09-10.59-5.52-28-8.21-41.71l-1.05-5.36c-1.55-7.93-2.71-13.87-3-15.24V314a39.8,39.8,0,0,1,.9-7.07c4-22.87,19.36-92.1,19.36-92.1L228,218.29s-10.93,81-8.26,98.37C221.74,329.65,242,365,252.05,381.84Z"/><path class="cls-2" d="M255.6,253.07a0.39,0.39,0,0,1-.15,0c-0.16-.06-16.07-6.47-21.09-5.31a2.06,2.06,0,0,0-.5.17c0.82,0.94,8.43,2.95,15.56,4.4a0.39,0.39,0,0,1-.16.76s-4-.82-8-1.82c-8.24-2.09-8.25-2.92-8.26-3.37,0-.63.84-0.83,1.16-0.9,5.26-1.21,20.9,5.08,21.56,5.35A0.39,0.39,0,0,1,255.6,253.07Z"/><path class="cls-2" d="M257.33,368.63a0.39,0.39,0,0,1-.37-0.27c-0.64-2.07-15.75-50.65-15.21-55.48s11.54-52.15,12-54.16a0.39,0.39,0,0,1,.76.18c-0.11.49-11.46,49.35-12,54.07s15,54.65,15.18,55.16a0.39,0.39,0,0,1-.26.49Z"/><path class="cls-3" d="M259.48,334.65c-6.74-7-17.66-20.74-17.75-22.06-0.27-4.07,4.07-17.73,4.07-17.73s5.37,6.1,10.56,12.06a39.8,39.8,0,0,0-.9,7.07v0.06c0.25,1.38,1.4,7.32,3,15.24Z"/><path class="cls-2" d="M227.34,242.27a0.39,0.39,0,0,1-.15-0.75h0a12.44,12.44,0,0,0,4.21-3.39c1.86-2.25,4-6.29,3.42-12.75a0.39,0.39,0,1,1,.78-0.06c1.08,12.93-8,16.88-8.1,16.92A0.39,0.39,0,0,1,227.34,242.27Z"/><polygon class="cls-2" points="266.19 405.42 272.57 401.24 269.78 390.07 268.32 384.24 257.83 387.76 259.14 390.51 266.19 405.42"/><path class="cls-3" d="M269.78,390.07l-1.46-5.83-10.49,3.52,1.3,2.75A25.85,25.85,0,0,0,269.78,390.07Z"/><path class="cls-4" d="M284.36,409.85L273.2,398c-3.2,3.55-10.7,5.9-10.7,5.9s-6,26.93-6.91,31.83,7,17.51,7,17.51Z"/><path class="cls-5" d="M262.63,407.3a0.39,0.39,0,0,0,.25-0.09,7.43,7.43,0,0,1,5.34-1.15,0.39,0.39,0,0,0,.09-0.77,8.11,8.11,0,0,0-5.93,1.32A0.39,0.39,0,0,0,262.63,407.3Z"/><path class="cls-5" d="M260.47,417.46a0.39,0.39,0,0,0,.25-0.09,7.81,7.81,0,0,1,5.57-1.2,0.39,0.39,0,0,0,.09-0.77,8.44,8.44,0,0,0-6.16,1.37A0.39,0.39,0,0,0,260.47,417.46Z"/><path class="cls-5" d="M258.31,427.62a0.39,0.39,0,0,0,.25-0.09,8.14,8.14,0,0,1,5.81-1.26,0.39,0.39,0,1,0,.09-0.77,8.77,8.77,0,0,0-6.39,1.43A0.39,0.39,0,0,0,258.31,427.62Z"/><path class="cls-5" d="M265.53,429.36h0.06A0.39,0.39,0,0,0,266,429l4.27-25.95a0.39,0.39,0,1,0-.77-0.13l-4.27,25.95A0.39,0.39,0,0,0,265.53,429.36Z"/><path class="cls-3" d="M262.64,453.22l10.3-20.58c-10.88-5.89-17.79.15-17.79,0.15s-2.15,6.6-1.26,10.62S262.64,453.22,262.64,453.22Z"/><polygon class="cls-3" points="288.77 412.57 284.84 408.89 262.16 454.18 267.02 456.87 288.77 412.57"/><ellipse class="cls-3" cx="275.92" cy="410.63" rx="3.9" ry="4.67" transform="translate(-208.43 309.88) rotate(-44.35)"/><path class="cls-2" d="M272,384.72l-4.3-16.64c-4.28,2.11-21,7.67-21,7.67l8.51,15.38A56,56,0,0,0,272,384.72Z"/><polygon class="cls-2" points="316.51 368.02 311.98 374.15 303.76 366.09 298.03 360.46 306.65 353.53 308.63 356.45 316.51 368.02"/><path class="cls-3" d="M308.63,356.45a19.84,19.84,0,0,1-4.87,9.64L298,360.46l8.62-6.93Z"/><path class="cls-4" d="M324.82,420.63L331,372.52,316.55,365c-1.85,4.41-8.15,9.11-8.15,9.11s3.28,27.38,4,32.33S324.82,420.63,324.82,420.63Z"/><path class="cls-5" d="M309.52,377.32a0.39,0.39,0,0,1-.33-0.59,8.12,8.12,0,0,1,5.16-3.21,0.39,0.39,0,0,1,.17.76,7.5,7.5,0,0,0-4.66,2.85A0.39,0.39,0,0,1,309.52,377.32Z"/><path class="cls-5" d="M310.63,387.56a0.39,0.39,0,0,0,.54-0.13,7.83,7.83,0,0,1,4.86-3,0.39,0.39,0,0,0-.17-0.76A8.44,8.44,0,0,0,310.5,387,0.39,0.39,0,0,0,310.63,387.56Z"/><path class="cls-5" d="M311.95,397.86a0.39,0.39,0,0,0,.54-0.13,8.09,8.09,0,0,1,5.06-3.1,0.39,0.39,0,0,0-.17-0.76,8.76,8.76,0,0,0-5.56,3.46A0.39,0.39,0,0,0,311.95,397.86Z"/><path class="cls-5" d="M319.22,396.84a0.39,0.39,0,0,0,.38.32h0.07a0.39,0.39,0,0,0,.32-0.45l-4.54-25.9a0.39,0.39,0,1,0-.77.13Z"/><path class="cls-3" d="M324.82,420.63l2.93-22.82c-12.21-2-16.74,6-16.74,6s0.15,6.93,2.32,10.44S324.82,420.63,324.82,420.63Z"/><polygon class="cls-3" points="336.06 373.63 331.13 371.45 324.69 421.69 330.17 422.63 336.06 373.63"/><ellipse class="cls-3" cx="323.29" cy="376.04" rx="3.9" ry="4.67" transform="translate(-157.2 498.74) rotate(-63.64)"/><path class="cls-2" d="M256.88,253.07a0.39,0.39,0,0,1-.15,0c-0.25-.11-6.1-2.63-6.1-6.22,0-3.34.53-22.39,0.53-22.58a0.39,0.39,0,0,1,.78,0c0,0.19-.53,19.23-0.53,22.56,0,2.54,3.8,4.62,5.15,5.29,0.33-2.65,1.82-14.91,2.6-28.94a0.39,0.39,0,0,1,.78,0c-0.88,15.83-2.65,29.4-2.67,29.53A0.39,0.39,0,0,1,256.88,253.07Z"/><path class="cls-1" d="M255.82,252.14s-14,41.23-13.33,49.23,46.74,52.07,46.74,52.07l12.09-9.06-24-48.16S308.25,250,310,240.41,301,205.93,301,205.93L259.2,213.4Z"/><path class="cls-2" d="M255.82,252.53a0.39,0.39,0,0,1-.33-0.6c0.45-.72,11-17.74,17.57-20.16,0.86-.31,1.78-0.56,2.13,0,0.23,0.38.65,1.1-4.52,6.18-2.46,2.41-5,4.69-5.07,4.72a0.39,0.39,0,0,1-.52-0.59c4.54-4,9.36-8.84,9.43-9.88a3,3,0,0,0-1.18.28c-4.89,1.79-12.4,12.53-15.62,17.41C262,246.18,271.95,238,280.25,235a0.39,0.39,0,0,1,.27.73c-10.73,3.93-24.3,16.59-24.44,16.71A0.39,0.39,0,0,1,255.82,252.53Z"/><path class="cls-2" d="M255,318.92a0.39,0.39,0,0,1-.29-0.13c-8.28-9.21-12.41-14.9-12.63-17.39-0.7-7.93,12.57-47.1,13.33-49.34l3.37-38.7a0.39,0.39,0,0,1,.78.07l-3.38,38.74a0.39,0.39,0,0,1,0,.09c-0.14.41-14,41.24-13.31,49.07,0.14,1.57,2.41,5.78,12.43,16.93A0.39,0.39,0,0,1,255,318.92Z"/><path class="cls-2" d="M293.67,341.31a0.39,0.39,0,0,1-.34-0.21l-24.7-45.94a0.39,0.39,0,0,1,0-.39c8.79-14.62,31.7-52.93,32.12-54.63,0.38-1.51-1.92-16.67-3.56-26.5a0.39,0.39,0,1,1,.77-0.13c0.42,2.52,4.09,24.67,3.55,26.82S271.82,291,269.42,295L294,340.73A0.39,0.39,0,0,1,293.67,341.31Z"/><path class="cls-2" d="M275.19,296.25h-0.1c-7.83-2.09-17.88-.89-18-0.88a0.39,0.39,0,0,1-.1-0.77c0.1,0,10.3-1.23,18.28.9A0.39,0.39,0,0,1,275.19,296.25Z"/><path class="cls-2" d="M300.89,236.23h0c-0.71-.08-6.92-0.85-8-3.11s-3.83-16-3.94-16.63a0.39,0.39,0,1,1,.77-0.15c0,0.14,2.85,14.37,3.88,16.43,0.8,1.59,5.64,2.48,7.44,2.68A0.39,0.39,0,0,1,300.89,236.23Z"/><path class="cls-2" d="M283.81,352.82s13.33-10.75,16.62-14.22l9.79,14.13a56,56,0,0,1-13.53,11.82Z"/><path class="cls-2" d="M213.74,176.43a72.78,72.78,0,0,1-9.51,5.23c-5.47,2.47-12.08,4.47-16.35,2.37-8.4-4.13-22.79-51.72-22.79-51.72l7.6-2.93,25.86,33.46,3.19-2.82,2.55-2.25Z"/><path class="cls-3" d="M213.74,176.43a72.78,72.78,0,0,1-9.51,5.23,41.7,41.7,0,0,1-2.5-21.64l2.55-2.25Z"/><path class="cls-3" d="M190.55,178.29h-0.09a0.39,0.39,0,0,1-.29-0.47,39.24,39.24,0,0,1,7.28-14.16,0.39,0.39,0,0,1,.59.51A38.4,38.4,0,0,0,190.93,178,0.39,0.39,0,0,1,190.55,178.29Z"/><path class="cls-2" d="M165.09,132.31s-5.73-5.38-6.53-7.42-2.89-9.73-2.89-9.73l15.55-9.06,5.15,11.82-3.69,11.46Z"/><path class="cls-2" d="M156.69,110.94c-2.09,1.07-1.51,3.24-1,4.22s3.78,7.86,6.18,6.71,0.58-5.64-1.11-8.4S157.49,110.53,156.69,110.94Z"/><path class="cls-2" d="M160.25,107.74c-2.13,1-1.11,4.18-.62,5.15s3.78,7.86,6.18,6.71,0.58-5.64-1.11-8.4S161.4,107.21,160.25,107.74Z"/><path class="cls-2" d="M164.25,105.65c-2.09,1.07-1.38,3.64-.67,5,0.51,1,3.78,7.86,6.18,6.71s0.33-5.51-1.11-8.4C167,105.57,165,105.25,164.25,105.65Z"/><path class="cls-2" d="M168.56,104.14c-2.09,1.07-1.51,3.24-1,4.22s3.78,7.86,6.18,6.71,0.58-5.64-1.11-8.4S169.36,103.73,168.56,104.14Z"/><path class="cls-3" d="M161.28,122.39c-1.22,0-2.64-1.3-4.23-3.89a0.39,0.39,0,1,1,.66-0.41c1.64,2.65,3,3.87,4,3.43s1.17-1.57.72-3.35a17.08,17.08,0,0,0-2-4.49,8.87,8.87,0,0,0-1-1.41,0.39,0.39,0,1,1,.57-0.53,9.64,9.64,0,0,1,1.15,1.54,17.89,17.89,0,0,1,2.09,4.71c0.68,2.72-.24,3.81-1.14,4.24A1.68,1.68,0,0,1,161.28,122.39Z"/><path class="cls-3" d="M165.23,120.13c-0.83,0-1.75-.6-2.75-1.8a0.39,0.39,0,0,1-.08-0.16,17.08,17.08,0,0,0-2-4.49,8.87,8.87,0,0,0-1-1.41,0.39,0.39,0,1,1,.57-0.53,9.64,9.64,0,0,1,1.15,1.54,18.06,18.06,0,0,1,2.06,4.62c0.72,0.85,1.72,1.74,2.5,1.36s1.17-1.58.72-3.36a17.12,17.12,0,0,0-2-4.48,16.53,16.53,0,0,0-1.09-1.58,0.39,0.39,0,1,1,.61-0.48A17.34,17.34,0,0,1,165,111a17.93,17.93,0,0,1,2.08,4.7c0.69,2.73-.24,3.82-1.13,4.26A1.69,1.69,0,0,1,165.23,120.13Z"/><path class="cls-3" d="M169.19,117.86c-0.83,0-1.76-.61-2.76-1.82a0.39,0.39,0,0,1-.08-0.15,17.12,17.12,0,0,0-2-4.48,16.53,16.53,0,0,0-1.09-1.58,0.39,0.39,0,1,1,.61-0.48A17.34,17.34,0,0,1,165,111a18.1,18.1,0,0,1,2.06,4.61c0.72,0.85,1.72,1.75,2.5,1.37,0.35-.17,1.4-0.67.56-3.53v0a28.06,28.06,0,0,0-1.84-4.32,10.6,10.6,0,0,0-.76-1.29,0.39,0.39,0,1,1,.64-0.44,11.39,11.39,0,0,1,.81,1.39,28.56,28.56,0,0,1,1.9,4.47v0c0.68,2.31.35,3.8-1,4.43A1.67,1.67,0,0,1,169.19,117.86Z"/><path class="cls-3" d="M173.14,115.6c-0.87,0-1.86-.67-2.93-2a0.39,0.39,0,0,1-.08-0.16,28.05,28.05,0,0,0-1.84-4.32,10.61,10.61,0,0,0-.75-1.29,0.39,0.39,0,0,1,.64-0.44,11.41,11.41,0,0,1,.81,1.39,29,29,0,0,1,1.88,4.39c0.77,0.95,1.84,2,2.67,1.56s1.17-1.58.72-3.36a0.39,0.39,0,0,1,.76-0.19c0.69,2.73-.24,3.82-1.14,4.25A1.67,1.67,0,0,1,173.14,115.6Z"/><path class="cls-2" d="M167,112.82a1.11,1.11,0,0,1,.57-1.72c2.38-.75,7.58-2.34,8-2.07s1.69,7.69,1.69,8.44-4.62,11.91-4.62,11.91-8.23-1.82-5.42-9.29c1-2.63,4.67-6.53,4.67-6.53a29.68,29.68,0,0,1-3.82,0A2,2,0,0,1,167,112.82Z"/><path class="cls-3" d="M167.64,126.55a0.39,0.39,0,0,1-.32-0.17c-1.21-1.77-1.35-3.93-.41-6.42a24.34,24.34,0,0,1,4.11-6,17.81,17.81,0,0,1-3-.05,2.37,2.37,0,0,1-1.3-.89,1.44,1.44,0,0,1-.23-1.33,1.52,1.52,0,0,1,1-1c1.53-.48,3.72-1.15,5.45-1.61a0.39,0.39,0,0,1,.2.75c-1.72.46-3.9,1.12-5.42,1.6a0.74,0.74,0,0,0-.48.49,0.67,0.67,0,0,0,.11.62,1.61,1.61,0,0,0,.88.61,26.88,26.88,0,0,0,3.7,0,0.39,0.39,0,0,1,.3.66s-3.63,3.88-4.58,6.4c-0.84,2.24-.73,4.16.33,5.71A0.39,0.39,0,0,1,167.64,126.55Z"/><path class="cls-4" d="M243.82,152.75c-1.43,7.71-6.2,16.16-15.42,22.49l-12.66,8c-9.33-6.53-14.26-24.53-14.26-24.53,6.66-9.2,25.33-24.66,25.33-24.66C238.69,128.06,246.33,139.3,243.82,152.75Z"/><path class="cls-5" d="M217.74,179.76a0.39,0.39,0,0,1-.29-0.12c-7.7-8.23-12-21.34-12.08-21.47a0.39,0.39,0,1,1,.74-0.24c0,0.13,4.33,13.08,11.91,21.18A0.39,0.39,0,0,1,217.74,179.76Z"/><path class="cls-3" d="M243.82,152.75c-1.43,7.71-6.2,16.16-15.42,22.49l-12.66,8s12.17-25.06,18.75-38.12C237.11,139.92,241.15,144.67,243.82,152.75Z"/><path class="cls-4" d="M265.86,112.59A76.69,76.69,0,0,0,226.8,134s-4.13,50.92-2,90.11c0,0,47.19,5.07,81.84-13.86C306.65,210.29,289.32,132.71,265.86,112.59Z"/><path class="cls-5" d="M242.4,152a0.39,0.39,0,0,1-.39-0.34c-0.88-7-1.42-17.87-1.42-18a0.39,0.39,0,0,1,.18-0.35l3-2a0.39,0.39,0,0,1,.2-0.06l3.82-.09a0.38,0.38,0,0,1,.4.37c0.18,4.29,1.58,17,1.6,17.12a0.39,0.39,0,0,1-.24.4l-7,2.84Zm-1-18.14c0.08,1.55.57,10.75,1.35,17.19l6.27-2.54c-0.21-1.88-1.34-12.27-1.55-16.5l-3.33.08Z"/><path class="cls-5" d="M228.41,220.81h-0.14a0.39,0.39,0,0,1,0-.78h0.11c2.47,0,46.77-.21,73.38-13.42a0.39,0.39,0,1,1,.35.7c-14.33,7.12-33.65,10.41-47.33,11.92A260.4,260.4,0,0,1,228.41,220.81Z"/><path class="cls-5" d="M224.63,174.56h0a0.39,0.39,0,0,1-.38-0.4c0.6-18.07,1.63-32.86,2-38.39a0.39,0.39,0,1,1,.78.06c-0.41,5.52-1.44,20.3-2,38.36A0.39,0.39,0,0,1,224.63,174.56Z"/><path class="cls-1" d="M240,119.32c-2.77,1.81-5.93,6.73-3.6,19.26,0,0,3.87-.89,7.33-6.4a21,21,0,0,0,10.73,2.2S250.13,112.72,240,119.32Z"/><path class="cls-1" d="M346.76,213.8l-47.23-8.62a4,4,0,0,1-3.24-4.69l8.37-45.84a4,4,0,0,1,4.69-3.24L356.57,160a4,4,0,0,1,3.24,4.69l-8.37,45.84A4,4,0,0,1,346.76,213.8Z"/><rect class="cls-1" x="300.72" y="178.5" width="54.65" height="8.21" transform="translate(89.49 472.52) rotate(-79.65)"/><path class="cls-1" d="M302.81,205.78l-27-4.92a3.69,3.69,0,0,1-3-4.3l8.49-46.49a3.69,3.69,0,0,1,4.3-3l27,4.92a3.69,3.69,0,0,1,3,4.3l-8.49,46.49A3.69,3.69,0,0,1,302.81,205.78Z"/><path class="cls-5" d="M306.1,205a0.39,0.39,0,0,1-.28-0.66,3.46,3.46,0,0,0,.93-1.8l8.43-46.16a3.45,3.45,0,0,0-.56-2.6,0.39,0.39,0,0,1,.64-0.44,4.23,4.23,0,0,1,.69,3.18l-8.43,46.16a4.24,4.24,0,0,1-1.14,2.21A0.39,0.39,0,0,1,306.1,205Z"/><rect class="cls-4" x="278.23" y="185.87" width="8.75" height="12.8" rx="1.28" ry="1.28" transform="translate(42.71 435.75) rotate(-79.65)"/><rect class="cls-4" x="282.83" y="177.47" width="2.62" height="12.8" rx="1.28" ry="1.28" transform="translate(52.23 430.37) rotate(-79.65)"/><rect class="cls-4" x="283.73" y="172.56" width="2.62" height="12.8" rx="1.28" ry="1.28" transform="translate(57.8 427.22) rotate(-79.65)"/><path class="cls-2" d="M324.64,194l-8.26-3.87L325.44,152l-5.84-1.42-8.43-2,2-23.86s0.78,0.2,2.11.58c7.21,2,30.56,9.09,32.81,16C350.77,149.37,333.31,180.43,324.64,194Z"/><path class="cls-3" d="M319.61,150.62l-8.43-2,2-23.86s0.78,0.2,2.11.58A35,35,0,0,1,319.61,150.62Z"/><path class="cls-3" d="M326.51,150.83a0.39,0.39,0,0,1-.3-0.64,35.62,35.62,0,0,1,11.47-8.5,0.39,0.39,0,1,1,.33.71,34.74,34.74,0,0,0-11.19,8.29A0.39,0.39,0,0,1,326.51,150.83Z"/><path class="cls-2" d="M316.38,190.16s-11.6,4.4-12.4,5.55-2.13,7.46-2,8.35,3.64,1.6,5.07-4.18h8.26Z"/><path class="cls-2" d="M316.38,190.16L307,199.89l-1.87,6.22a2.09,2.09,0,0,0,1.43,2.91c2,0.63,2.77-1.65,2.77-1.65h0s-0.81,2.57,1.24,3.1,2.82-1.88,2.82-1.88-0.47,2.36,1.16,2.8,2.56-1.69,2.56-1.69-0.59,2.09,1.23,2.49c1.59,0.35,2.17-1.47,2.17-1.47s2.2-5.43,3-8c0.62-2,1.11-8.71,1.11-8.71Z"/><path class="cls-4" d="M265.86,112.59s20.79-.8,50.38,11.06c0,0,2.93,19.06-4.4,31.72l-25.19-7.46S259.46,135.51,265.86,112.59Z"/><path class="cls-5" d="M308.07,151.41l-0.14,0a0.39,0.39,0,0,1-.22-0.51c4.7-11.85,2.84-25.79,2.82-25.93a0.39,0.39,0,1,1,.77-0.11c0,0.14,1.91,14.28-2.87,26.32A0.39,0.39,0,0,1,308.07,151.41Z"/><path class="cls-5" d="M310.43,155.34l-0.11,0-23.78-7-0.05,0a50.53,50.53,0,0,1-12.43-8.67c-7.79-7.5-10.91-16.24-9-25.28a0.39,0.39,0,1,1,.76.16c-1.85,8.89,1.11,17.15,8.81,24.56a49.75,49.75,0,0,0,12.18,8.51l23.75,7A0.39,0.39,0,0,1,310.43,155.34Z"/><path class="cls-2" d="M247.33,122s-0.75,5.58-3.6,9.49c0,0-4.2-3.27-5.27-5.22l-0.5-2.1-1.78-7.43L242.4,104l0.71,2.57Z"/><path class="cls-3" d="M238,124.15l-1.78-7.43L242.4,104l0.71,2.57C243.52,111.93,243.43,121.46,238,124.15Z"/><path class="cls-2" d="M216.41,97s2,14.53,10.26,20.79,12.93,1.73,15.2-6.13S242,85.26,230.8,85,215.21,89.66,216.41,97Z"/><path class="cls-3" d="M251.24,93.51a20.25,20.25,0,0,1-.49,3.65c-2.49,11.37-6.57,13.6-6.57,13.6l-2.36-9.06-1-.27-0.46-1-1.49-3.25s-5.86,1.6-8-7c0,0-2,5.78-5,6.76a5.13,5.13,0,0,1-5.07-1.24s-0.27,8.13-7.06,5.2-9.33-12.66-7.6-14.4,4.93,0.67,4.93.67-5.07-13.2.13-17.06,12.88,1.78,16.17,5.15c0,0-.53-7.46,3.11-7.64s3.38,10,9.42,12.8C245.24,82.81,251.55,85.17,251.24,93.51Z"/><path class="cls-3" d="M251.24,93.51a20.25,20.25,0,0,1-.49,3.65c-2.49,11.37-6.57,13.6-6.57,13.6l-2.36-9.06-1-.27-0.46-1C243.93,99.64,248.48,97.8,251.24,93.51Z"/><path class="cls-2" d="M240.36,101.74s-0.89-7.51,3.38-7.91,5.2,10.31-2.53,11.33Z"/><path class="cls-3" d="M242.13,103.78a0.39,0.39,0,0,1-.38-0.31c-0.05-.26-1.22-6.29,2.5-7.81a0.39,0.39,0,1,1,.3.72c-3.13,1.28-2,6.88-2,6.94a0.39,0.39,0,0,1-.31.46h-0.08Z"/><path class="cls-3" d="M244.8,100.89a0.39,0.39,0,0,1-.36-0.24,2.66,2.66,0,0,0-2.25-1.45,0.39,0.39,0,0,1,.07-0.78,3.44,3.44,0,0,1,2.9,1.93A0.39,0.39,0,0,1,244.8,100.89Z"/><path class="cls-3" d="M227.78,111.83a2.52,2.52,0,0,1-1.88-.58,1.27,1.27,0,0,1-.14-1.36,9.14,9.14,0,0,0,.18-4.51,0.39,0.39,0,0,1,.76-0.18,9.78,9.78,0,0,1-.21,5,0.51,0.51,0,0,0,0,.57c0.38,0.44,2,.33,3,0.11a0.39,0.39,0,0,1,.17.76A9.54,9.54,0,0,1,227.78,111.83Z"/><path class="cls-3" d="M228,101.17s-0.84-2.09-.53-2.71,0.84,0.31.84,0.31,3.6-2.75,6,1C234.4,99.79,231.56,98.46,228,101.17Z"/><path class="cls-3" d="M229.78,105.07h0a0.39,0.39,0,0,1-.37-0.41,3.72,3.72,0,0,1,1.49-2.78c0.94-.58,2.21-0.52,3.77.17a0.39,0.39,0,1,1-.32.71c-1.31-.58-2.33-0.66-3-0.22a3,3,0,0,0-1.12,2.15A0.39,0.39,0,0,1,229.78,105.07Z"/><path class="cls-3" d="M223.66,103.05a8,8,0,0,0-1.44-2.39c-0.56-.31-0.25.71-0.25,0.71s-3.64-.15-2.53,4.12C219.44,105.49,220.09,102.89,223.66,103.05Z"/><path class="cls-3" d="M221.06,108H221a0.39,0.39,0,0,1-.27-0.48c0.36-1.32,1-2.08,1.76-2.28,1.38-.32,2.76,1.21,2.82,1.28a0.39,0.39,0,0,1-.58.52h0c-0.31-.35-1.29-1.22-2.06-1a2.26,2.26,0,0,0-1.19,1.72A0.39,0.39,0,0,1,221.06,108Z"/><path class="cls-3" d="M234.51,115.87a4,4,0,0,1-4,.17,5.14,5.14,0,0,1-1.43-1,16.78,16.78,0,0,1,6.13-4.87,7.08,7.08,0,0,1,.54,1.26C236.2,112.71,236.43,114.73,234.51,115.87Z"/><path class="cls-6" d="M235.78,111.4a11.47,11.47,0,0,0-5.24,4.64,5.14,5.14,0,0,1-1.43-1,16.78,16.78,0,0,1,6.13-4.87A7.08,7.08,0,0,1,235.78,111.4Z"/><path class="cls-1" d="M291,101.21l-1.8,3.42L269.4,94.18l1.8-3.42s7,1.7,12.66-5.93a25.71,25.71,0,0,0,3.07-5.59l1.83,2.25,2.89,0.24a28.66,28.66,0,0,0-1.81,3.14C284.62,95.45,291,101.21,291,101.21Z"/><path class="cls-3" d="M289.83,84.87l-6,0a25.71,25.71,0,0,0,3.07-5.59l1.83,2.25,2.89,0.24A28.66,28.66,0,0,0,289.83,84.87Z"/><path class="cls-2" d="M289.77,101.85a0.39,0.39,0,0,1-.18,0l-18.07-9.54a0.39,0.39,0,0,1,.36-0.69L290,101.11A0.39,0.39,0,0,1,289.77,101.85Z"/><path class="cls-1" d="M282.9,70.7c-6.31-3.33-10.21-7.54-11.58-12.52-1.71-6.19,1.08-11.75,2.36-13.85A3.15,3.15,0,0,1,277.82,43l12.64,6.67-1.87,3.54L276.76,47c-1.08,2-2.76,5.92-1.59,10.15,1.07,3.87,4.3,7.25,9.59,10Z"/><path class="cls-1" d="M317.84,82.74a17.84,17.84,0,0,1-11-.07A31.86,31.86,0,0,1,301,80.24l1.87-3.54a24.34,24.34,0,0,0,7.63,2.69,12.7,12.7,0,0,0,6.08-.44c4.15-1.42,6.48-5,7.48-7L312.2,65.67l1.87-3.54L326.7,68.8A3.15,3.15,0,0,1,327.95,73C326.93,75.22,323.92,80.66,317.84,82.74Z"/><path class="cls-3" d="M302.84,76.7a24.34,24.34,0,0,0,7.63,2.69,30.12,30.12,0,0,1-3.66,3.26A31.86,31.86,0,0,1,301,80.24Z"/><path class="cls-3" d="M317.38,68.4l-5.18-2.73,1.87-3.54,4.54,2.4A30.91,30.91,0,0,1,317.38,68.4Z"/><path class="cls-1" d="M288.76,81.48s-21-8.09,1.91-37.88L319,58.54C307.32,94.29,288.76,81.48,288.76,81.48Z"/><path class="cls-2" d="M285.62,51.31a0.39,0.39,0,0,1-.33-0.59c0.51-.84,1.05-1.7,1.63-2.56a0.39,0.39,0,1,1,.65.43c-0.57.85-1.11,1.7-1.61,2.53A0.39,0.39,0,0,1,285.62,51.31Z"/><path class="cls-2" d="M279.95,68.34a0.39,0.39,0,0,1-.39-0.38,20.78,20.78,0,0,1,.21-3.24,0.39,0.39,0,1,1,.77.11,20,20,0,0,0-.2,3.11,0.39,0.39,0,0,1-.38.4h0Z"/><path class="cls-2" d="M298.34,76.63a0.39,0.39,0,0,1-.32-0.17L294.28,71h-6.61a0.39,0.39,0,0,1-.31-0.63l4-5.24-2-6.29a0.39,0.39,0,0,1,.5-0.49l6.23,2.21,5.35-3.88a0.39,0.39,0,0,1,.62.33l-0.18,6.61,5.34,3.89a0.39,0.39,0,0,1-.12.69l-6.34,1.87-2.05,6.28a0.39,0.39,0,0,1-.32.27h-0.06Zm-9.87-6.41h6a0.39,0.39,0,0,1,.32.17l3.41,5,1.87-5.72a0.39,0.39,0,0,1,.26-0.25l5.78-1.7-4.87-3.55a0.39,0.39,0,0,1-.16-0.33l0.16-6-4.88,3.53a0.39,0.39,0,0,1-.36.05l-5.67-2,1.85,5.73a0.39,0.39,0,0,1-.06.36Z"/><path class="cls-2" d="M312.45,58.88a0.39,0.39,0,0,1-.18,0l-21.59-11.4a0.39,0.39,0,0,1,.36-0.69l21.59,11.4A0.39,0.39,0,0,1,312.45,58.88Z"/><polygon class="cls-1" points="187.14 73.56 159.74 66.67 150.68 73.71 166.16 99.05 191.78 84.05 187.14 73.56"/><path class="cls-2" d="M171.34,79.3h-0.1l-18.69-4.7a0.39,0.39,0,1,1,.19-0.76l18.69,4.7A0.39,0.39,0,0,1,171.34,79.3Z"/><path class="cls-2" d="M166,97.47a0.39,0.39,0,0,1-.39-0.36L164,77.19a0.39,0.39,0,1,1,.78-0.06L166.39,97a0.39,0.39,0,0,1-.36.42h0Z"/><path class="cls-2" d="M167.43,94.38h-0.1a0.39,0.39,0,0,1-.28-0.47l5.46-21.73a0.39,0.39,0,1,1,.76.19l-5.46,21.73A0.39,0.39,0,0,1,167.43,94.38Z"/><path class="cls-2" d="M189.51,83.86h-0.1L171,79.23a0.39,0.39,0,1,1,.19-0.76l18.38,4.62A0.39,0.39,0,0,1,189.51,83.86Z"/><path class="cls-2" d="M164.38,77.54h-0.1a0.39,0.39,0,0,1-.26-0.22l-4.17-9.4a0.39,0.39,0,0,1,.71-0.32l4,8.95,7.53-5.86a0.39,0.39,0,1,1,.48.62l-7.93,6.16A0.39,0.39,0,0,1,164.38,77.54Z"/><path class="cls-2" d="M178.08,81H178a0.39,0.39,0,0,1-.26-0.22l-4.11-9.27a0.39,0.39,0,1,1,.71-0.32L178.24,80l7.66-6a0.39,0.39,0,1,1,.48.62l-8.05,6.26A0.39,0.39,0,0,1,178.08,81Z"/><path class="cls-2" d="M167.43,97.47a0.39,0.39,0,0,1-.33-0.6l10.65-16.48a0.39,0.39,0,0,1,.66.42L167.76,97.29A0.39,0.39,0,0,1,167.43,97.47Z"/><path class="cls-3" d="M337.46,91.83s-2,8.85-8.68,7.53c0,0,7.1,2,5.4,10.65,0,0,1.89-8.62,8.48-7.9C342.65,102.11,336.4,99.81,337.46,91.83Z"/><path class="cls-1" d="M324.45,81.81c-2.86-.51-3.8,6.06-1.13,6.78S327.32,82.33,324.45,81.81Z"/><path class="cls-1" d="M343.69,109.88c-1.75-.31-2.32,3.7-0.69,4.14S345.45,110.2,343.69,109.88Z"/><path class="cls-3" d="M145.16,92.39s1.4,7.13-3.93,8.33c0,0,5.86-.8,7.4,6.06,0,0-1.4-6.93,3.67-8.53C152.29,98.26,147,98.59,145.16,92.39Z"/><path class="cls-3" d="M152.57,198.49s2.76,6.44-2,8.66c0,0,5.37-1.94,8.21,4.22,0,0-2.72-6.26,1.73-8.79C160.48,202.58,155.52,204,152.57,198.49Z"/><path class="cls-3" d="M197.18,56.47s-2.47,6.47-7.39,4.74c0,0,5.14,2.32,2.91,8.64,0,0,2.37-6.31,7.27-5C200,64.81,195.5,62.38,197.18,56.47Z"/><path class="cls-1" d="M167.08,210.75c-2.17-.08-3.07,5.6-0.53,5.86S170.55,210.89,167.08,210.75Z"/></svg>