<svg id="Layer_1" data-name="Layer 1" xmlns="http://www.w3.org/2000/svg" viewBox="0 0 1200 1200"><defs><style>.cls-1{fill:#e8e8e8;}.cls-2{fill:#242424;}.cls-3,.cls-8{fill:#fff;}.cls-4,.cls-6,.cls-7,.cls-9{fill:none;}.cls-4,.cls-8{stroke:#242424;}.cls-4,.cls-7,.cls-8{stroke-linecap:round;stroke-linejoin:round;stroke-width:4px;}.cls-5{fill:#c2c2c2;}.cls-6{stroke:#c2c2c2;stroke-miterlimit:10;}.cls-7{stroke:#fff;}</style></defs><path id="Oval" class="cls-1" d="M600,914.5c165.41,0,299.5-210.66,299.5-359.5S765.41,285.5,600,285.5,300.5,406.16,300.5,555,434.59,914.5,600,914.5Z"/><path id="Path-33" class="cls-2" d="M576.66,917.65c-.7,25.81-.67,50.79.11,57.54a191.54,191.54,0,0,1,.88,25l-85.92,3a2.56,2.56,0,0,1-2.59-2.53,2.65,2.65,0,0,1,.92-2.12q54.42-46.23,54.2-52.37l0-28.72Z"/><path id="Path-33-2" data-name="Path-33" class="cls-2" d="M649,917.65c.71,25.81.67,50.79-.11,57.54a193.32,193.32,0,0,0-.88,25l85.92,3a2.56,2.56,0,0,0,2.59-2.53,2.65,2.65,0,0,0-.92-2.12q-54.4-46.23-54.2-52.37l-.05-28.72Z"/><path id="Path-31" class="cls-3" d="M664.68,554.34l18.64,187.4,18.4,173.87c-18.89,7.85-64.55,5.81-69.46,3.07L616.81,749.16,607.7,641.61c-5.29,2.92-14.48,2.67-19.15-.3l.27,108.11L586.22,920l-69.57,3.76,5.23-180.33,6.21-189.06Z"/><path id="Path-31-2" data-name="Path-31" class="cls-4" d="M597.9,643.67a18.77,18.77,0,0,1-9.35-2.36l.27,108.11L586.22,920l-69.57,3.76,1-32.77"/><path id="Path-31-3" data-name="Path-31" class="cls-4" d="M699,890.23l2.69,25.38c-18.89,7.85-64.55,5.81-69.46,3.07L627.19,863"/><polygon class="cls-2" points="570.03 333.63 617.77 333.63 617.44 344.92 568.59 344.92 570.03 333.63"/><polygon id="Path-36" class="cls-3" points="622.67 347.88 606.85 343.58 604.75 312.16 610.83 305.65 613.9 295.92 621.46 295.46 625.57 288.56 623.86 280.91 621.61 278.56 625.34 265.56 575.4 259.59 572.4 261.1 565.18 273.81 560.97 288.38 563.54 301.08 568.94 309.06 576.94 314.77 580.03 314.58 581.63 345.3 559.9 344.9 580.44 367.08 623.51 367.07 622.67 347.88"/><path id="Path-20" class="cls-4" d="M616.43,345.76c-3.89-.95-7.09-1.68-9.58-2.18-.74-9.53-.9-19.72-2.1-31.42a26.21,26.21,0,0,0,6.08-6.51q1.53-2.73,3-9.68,12.21.21,11.6-9.66t-11.61-8.13"/><path id="Path-21" class="cls-4" d="M570.68,345l11,.3L581,315.36Q565.54,312.2,561.27,292q-1.51-10,7.51-23.78"/><path id="Path-22" class="cls-4" d="M622.74,274.56a16.59,16.59,0,0,0-10.22-1.48"/><path id="Path-23" class="cls-2" d="M624.51,271.07q-8.13-3.1-13.87-2.75-.67-2.58-1.67-5.78-11.88,14-36.7-.37c-24.82-14.35,3.22-56.92,28.07-40.08q13.41,9.34,15.1,15.58,10.44.87,12.68,6.78Q632.71,252.4,624.51,271.07Z"/><path id="Path-24" class="cls-5" d="M623.1,345.36c-9.31,12.35-19.82,18.64-32.19,16.52-18.55-3.17-24.33-8.13-27.74-17.32-23.41,4.06-36.28,2.33-41.64,12.17s-4.78,58.07-4.78,58.07c-.72,26.66,4.12,119.25,3.44,152.11q52.69,13.05,79.38,11.2T672,556.33l3.36-91.54,4.82-98.7S649.27,350.89,623.1,345.36Z"/><path class="cls-2" d="M626.05,346.14c.34.63-8.28-12.51-8.28-12.51l-16,14.78-6,17L617,357.86Z"/><path class="cls-2" d="M657.68,344.24c-24.78.13-46.62,5.21-46.62,54s-5,441,2,448,62.72,18.3,85.43,33.12c21.09,13.76,46.34,13.19,51.88,4.89S721.16,668.4,731.62,637,711.75,377.24,704.3,368.79,682.45,344.1,657.68,344.24Z"/><path class="cls-2" d="M531.3,345S436.11,304.93,427,290.15s-29.57,96.65-19.34,119.39,103.48,23.88,103.48,23.88Z"/><path class="cls-2" d="M670.15,350.59s95.19-40.08,104.29-54.86,29.56,96.65,19.33,119.4S690.29,439,690.29,439Z"/><path class="cls-2" d="M531.3,345c23.18-3.05,47.12,14,47.12,62.81s0,437.61-5,444.58-40.47,23-61.86,33.13c-12.11,5.75-36.64,10.34-41.06,0s24.65-210.93,17.08-242.31,3.55-246,5.9-267.42C496.53,357.81,508.12,348.05,531.3,345Z"/><path class="cls-5" d="M612.29,380.26c-11.5,5.09-20,8.68-20,8.68s-7.7-3.45-18.33-8.36c-24.11-11.12-56.74-24.21-61.31-44,4.31-3.55,20,3.48,25.2,8.72s14.37,7.65,29,15.9c11.46,6.45,22.24,12.2,24.25,12.2,2.17,0,17.74-6.51,29.52-13.58,13-7.81,18.72-14.45,22.1-15.94s52.94-6.45,43.69.7S637.45,369.11,612.29,380.26Z"/><path class="cls-2" d="M620.93,359.62l-4.62,20.64c-11.5,5.09-24,9.92-24,9.92a203.47,203.47,0,0,0-18.35-9.6l-7.07-19.36c11.46,6.45,22.24,12.2,24.25,12.2C593.34,373.42,609.15,366.69,620.93,359.62Z"/><path class="cls-2" d="M561.74,346.14c-.33.63,8.29-12.51,8.29-12.51l16,14.78,6.69,17-21.88-7.59Z"/><polygon class="cls-5" points="588.64 196.79 665.43 220.71 598.35 243.81 523.28 220.71 588.64 196.79"/><path class="cls-5" d="M630.15,247.33c2.15,2.12-54.55,5.8-54.55,5.8s-14.59-4.49-14.08-6.42c1.46-5.59,4.21-18.57,4.21-18.57h56.92S628.22,240.54,630.15,247.33Z"/><path class="cls-6" d="M558.51,208.66c-2.32-1.93-17.24-7.54-16.08,9.5l1.26,17.37"/><path class="cls-6" d="M561.16,208.66c-2.33-1.93-17.24-7.54-16.08,9.5l.55,17.15"/><path class="cls-6" d="M555.55,208.66c-2.32-1.93-17.24-7.54-16.07,9.5l2.59,17.26"/><path class="cls-5" d="M562,207c-1.9-1-7-3.69-8.92-2.07s-2,2.79-.9,3.42,2.79,1.62,3.15,1.53S562,207,562,207Z"/><path class="cls-7" d="M493.89,351.18s27.94,114,25.7,149.75S504,705.44,512.89,742.32"/><path class="cls-7" d="M709.7,351.18s-27.94,114-25.7,149.75,15.64,204.51,6.7,241.39"/><path class="cls-7" d="M715.18,526.84c-1.73,40.93-4.49,125.43-4.49,139.48"/><path class="cls-7" d="M710.69,442.82s2.12,16.22,3.77,32.42"/><path class="cls-7" d="M495,524.4c1.72,39.91,4.59,127.58,4.59,141.92"/><path class="cls-7" d="M499.6,442.82s-3,23.09-4.66,41.69"/><path id="Path-26" class="cls-3" d="M421.52,344.16c-9.88-2.31-43.18-36.71-61.79-54.07q-25.59-14.38-37.32-32.95c-11.73-18.57,9.8-18.22,20.65-12.13s18.27,16.33,21.32,21.27,5.56,8.66,10.92,12.14c15.16,6.89,18.37,8.07,55.4,32.81C442.9,316.48,433.72,349.4,421.52,344.16Z"/><path id="Path-26-2" data-name="Path-26" class="cls-4" d="M404,328.36c-12.72-10.06-27.55-22.72-44.25-38.27q-25.59-14.38-37.32-32.95c-11.73-18.57,9.8-18.22,20.65-12.13s18.27,16.33,21.32,21.27,5.56,8.66,10.92,12.14c7.74,3.52,21.18,11.32,37.41,21.4"/><path id="Path-27" class="cls-3" d="M348.74,254.69Q335.6,249,336,255.53T358.9,275"/><path class="cls-5" d="M381.51,224.62l-26.15,32.24-6.38,8L316.83,307.1c-1.77,2.22-17.17-7.35-14.07-11.23l30.69-40.41,6.12-7.66,27.87-34.4C370.54,209.51,384.61,220.74,381.51,224.62Z"/><path class="cls-2" d="M355.36,256.86c-.64,2.37-3.4,5.16-6.38,8l-15.53-9.4c1.45-3.17,3.1-6.13,6.12-7.66C346.06,250.62,352,253.52,355.36,256.86Z"/><path id="Path-27-2" data-name="Path-27" class="cls-8" d="M357.1,257c-7-6.45-13.22-11.54-14.43-7.38s-1,7.61,10.31,20.75"/><path id="Path-26-3" data-name="Path-26" class="cls-3" d="M778.78,351.61c9.85-2.31,43.05-36.7,61.61-54.07q25.51-14.37,37.21-33c11.7-18.57-9.77-18.22-20.59-12.13s-18.22,16.34-21.25,21.27-5.55,8.66-10.89,12.14c-15.12,6.9-18.32,8.07-55.24,32.82C757.47,323.93,766.62,356.85,778.78,351.61Z"/><path id="Path-26-4" data-name="Path-26" class="cls-4" d="M796.27,335.81c12.68-10.06,27.47-22.72,44.12-38.27q25.51-14.37,37.21-33c11.7-18.57-9.77-18.22-20.59-12.13s-18.22,16.34-21.25,21.27-5.55,8.66-10.89,12.14c-7.72,3.52-21.12,11.32-37.31,21.4"/><path id="Path-27-3" data-name="Path-27" class="cls-3" d="M851.35,262.14q13.1-5.64,12.73.84t-22.86,19.47"/><path id="Path-27-4" data-name="Path-27" class="cls-4" d="M851.35,262.14q13.1-5.64,12.73.84t-22.86,19.47"/><path class="cls-7" d="M780.14,414l-10.69-23.52c-11.69-25.71-25-69.7,4-84.87"/><path class="cls-7" d="M426.36,410.64l10.69-23.52c11.69-25.72,25-69.71-4-84.87"/><rect class="cls-9" width="1200" height="1200"/></svg>